<svg width="50" height="50" viewBox="0 0 50 50" fill="none" xmlns="http://www.w3.org/2000/svg">
<mask id="mask0_146_3733" style="mask-type:alpha" maskUnits="userSpaceOnUse" x="0" y="0" width="50" height="50">
<circle cx="25" cy="25" r="24.5" stroke="white"/>
</mask>
<g mask="url(#mask0_146_3733)">
<g filter="url(#filter0_f_146_3733)">
<circle cx="31" cy="20" r="25" fill="#D9D9D9"/>
</g>
</g>
<mask id="mask1_146_3733" style="mask-type:alpha" maskUnits="userSpaceOnUse" x="14" y="14" width="21" height="21">
<g clip-path="url(#clip0_146_3733)">
<path fill-rule="evenodd" clip-rule="evenodd" d="M27.071 14.0601C27.3693 14.0601 27.6555 14.1786 27.8665 14.3896C28.0774 14.6005 28.196 14.8867 28.196 15.1851V16.9671H29.7485C30.3452 16.9671 30.9175 17.2041 31.3395 17.6261C31.7614 18.048 31.9985 18.6203 31.9985 19.2171V20.7711H33.827C34.1253 20.7711 34.4115 20.8896 34.6225 21.1006C34.8334 21.3115 34.952 21.5977 34.952 21.8961C34.952 22.1944 34.8334 22.4806 34.6225 22.6916C34.4115 22.9025 34.1253 23.0211 33.827 23.0211H31.997V25.9161H33.827C34.1253 25.9161 34.4115 26.0346 34.6225 26.2456C34.8334 26.4565 34.952 26.7427 34.952 27.0411C34.952 27.3394 34.8334 27.6256 34.6225 27.8366C34.4115 28.0475 34.1253 28.1661 33.827 28.1661H31.997V29.7156C31.997 30.3123 31.7599 30.8846 31.338 31.3066C30.916 31.7285 30.3437 31.9656 29.747 31.9656H28.1975V33.8151C28.1975 34.1134 28.0789 34.3996 27.868 34.6106C27.657 34.8215 27.3708 34.9401 27.0725 34.9401C26.7741 34.9401 26.488 34.8215 26.277 34.6106C26.066 34.3996 25.9475 34.1134 25.9475 33.8151V31.9656H23.0525V33.8151C23.0525 34.1134 22.9339 34.3996 22.723 34.6106C22.512 34.8215 22.2258 34.9401 21.9275 34.9401C21.6291 34.9401 21.343 34.8215 21.132 34.6106C20.921 34.3996 20.8025 34.1134 20.8025 33.8151V31.9656H19.25C18.6532 31.9656 18.0809 31.7285 17.659 31.3066C17.237 30.8846 17 30.3123 17 29.7156V28.1646H15.173C14.8746 28.1646 14.5885 28.046 14.3775 27.8351C14.1665 27.6241 14.048 27.3379 14.048 27.0396C14.048 26.7412 14.1665 26.455 14.3775 26.2441C14.5885 26.0331 14.8746 25.9146 15.173 25.9146H17V23.0196H15.173C14.8746 23.0196 14.5885 22.901 14.3775 22.6901C14.1665 22.4791 14.048 22.1929 14.048 21.8946C14.048 21.5962 14.1665 21.31 14.3775 21.0991C14.5885 20.8881 14.8746 20.7696 15.173 20.7696H17V19.2186C17 18.6218 17.237 18.0495 17.659 17.6276C18.0809 17.2056 18.6532 16.9686 19.25 16.9686H20.8025V15.1851C20.8025 14.8867 20.921 14.6005 21.132 14.3896C21.343 14.1786 21.6291 14.0601 21.9275 14.0601C22.2258 14.0601 22.512 14.1786 22.723 14.3896C22.9339 14.6005 23.0525 14.8867 23.0525 15.1851V16.9671H25.9475V15.1851C25.9475 14.8867 26.066 14.6005 26.277 14.3896C26.488 14.1786 26.7741 14.0601 27.0725 14.0601H27.071ZM23.3645 20.8521C23.6285 19.6461 25.3445 19.6386 25.619 20.8431L25.631 20.8956L25.655 21.0006C25.7967 21.5998 26.1109 22.1443 26.5588 22.5669C27.0066 22.9894 27.5685 23.2714 28.175 23.3781C29.435 23.5971 29.435 25.4031 28.175 25.6221C27.565 25.7294 27.0002 26.0142 26.5512 26.4408C26.1022 26.8674 25.7889 27.4169 25.6505 28.0206L25.619 28.1571C25.3445 29.3616 23.6285 29.3526 23.3645 28.1481L23.3375 28.0296C23.2052 27.4234 22.8952 26.8705 22.4472 26.4414C21.9991 26.0123 21.4333 25.7265 20.822 25.6206C19.565 25.4016 19.565 23.5986 20.822 23.3796C21.4311 23.2739 21.9952 22.9897 22.4425 22.5629C22.8898 22.1361 23.2003 21.5861 23.3345 20.9826L23.354 20.8971L23.3645 20.8521Z" fill="black"/>
</g>
</mask>
<g mask="url(#mask1_146_3733)">
<g filter="url(#filter1_f_146_3733)">
<circle cx="32.5122" cy="18.5122" r="14.5122" fill="white"/>
</g>
</g>
<defs>
<filter id="filter0_f_146_3733" x="-33.4" y="-44.4" width="128.8" height="128.8" filterUnits="userSpaceOnUse" color-interpolation-filters="sRGB">
<feFlood flood-opacity="0" result="BackgroundImageFix"/>
<feBlend mode="normal" in="SourceGraphic" in2="BackgroundImageFix" result="shape"/>
<feGaussianBlur stdDeviation="19.7" result="effect1_foregroundBlur_146_3733"/>
</filter>
<filter id="filter1_f_146_3733" x="3.5" y="-10.5" width="58.0244" height="58.0244" filterUnits="userSpaceOnUse" color-interpolation-filters="sRGB">
<feFlood flood-opacity="0" result="BackgroundImageFix"/>
<feBlend mode="normal" in="SourceGraphic" in2="BackgroundImageFix" result="shape"/>
<feGaussianBlur stdDeviation="7.25" result="effect1_foregroundBlur_146_3733"/>
</filter>
<clipPath id="clip0_146_3733">
<rect width="21" height="21" fill="white" transform="translate(14 14)"/>
</clipPath>
</defs>
</svg>
