<svg width="50" height="50" viewBox="0 0 50 50" fill="none" xmlns="http://www.w3.org/2000/svg">
<mask id="mask0_122_3254" style="mask-type:alpha" maskUnits="userSpaceOnUse" x="0" y="0" width="50" height="50">
<circle cx="25" cy="25" r="24.5" stroke="white"/>
</mask>
<g mask="url(#mask0_122_3254)">
<g filter="url(#filter0_f_122_3254)">
<circle cx="31" cy="20" r="25" fill="#D9D9D9"/>
</g>
</g>
<mask id="mask1_122_3254" style="mask-type:alpha" maskUnits="userSpaceOnUse" x="7" y="6" width="37" height="37">
<path d="M37.9614 29.4332L39.8144 30.5448C39.9288 30.6132 40.0234 30.7101 40.0891 30.826C40.1548 30.9419 40.1893 31.0729 40.1893 31.2061C40.1893 31.3394 40.1548 31.4704 40.0891 31.5863C40.0234 31.7022 39.9288 31.7991 39.8144 31.8675L26.294 39.9798C26.0542 40.1238 25.7798 40.1999 25.5001 40.1999C25.2203 40.1999 24.9459 40.1238 24.7061 39.9798L11.1857 31.8675C11.0714 31.7991 10.9767 31.7022 10.911 31.5863C10.8453 31.4704 10.8108 31.3394 10.8108 31.2061C10.8108 31.0729 10.8453 30.9419 10.911 30.826C10.9767 30.7101 11.0714 30.6132 11.1857 30.5448L13.0388 29.4332L25.5001 36.9103L37.9614 29.4332ZM37.9614 22.1874L39.8144 23.2989C39.9288 23.3674 40.0234 23.4643 40.0891 23.5802C40.1548 23.6961 40.1893 23.8271 40.1893 23.9603C40.1893 24.0936 40.1548 24.2245 40.0891 24.3404C40.0234 24.4563 39.9288 24.5533 39.8144 24.6217L25.5001 33.2088L11.1857 24.6217C11.0714 24.5533 10.9767 24.4563 10.911 24.3404C10.8453 24.2245 10.8108 24.0936 10.8108 23.9603C10.8108 23.8271 10.8453 23.6961 10.911 23.5802C10.9767 23.4643 11.0714 23.3674 11.1857 23.2989L13.0388 22.1874L25.5001 29.6645L37.9614 22.1874ZM26.2925 8.01794L39.8144 16.1302C39.9288 16.1986 40.0234 16.2955 40.0891 16.4114C40.1548 16.5274 40.1893 16.6583 40.1893 16.7916C40.1893 16.9248 40.1548 17.0558 40.0891 17.1717C40.0234 17.2876 39.9288 17.3845 39.8144 17.4529L25.5001 26.04L11.1857 17.4545C11.0714 17.386 10.9767 17.2891 10.911 17.1732C10.8453 17.0573 10.8108 16.9263 10.8108 16.7931C10.8108 16.6599 10.8453 16.5289 10.911 16.413C10.9767 16.2971 11.0714 16.2002 11.1857 16.1317L24.7061 8.01948C24.9459 7.87542 25.2203 7.79932 25.5001 7.79932C25.7798 7.79932 26.0542 7.87542 26.294 8.01948M25.5001 11.1367L16.0759 16.7916L25.5001 22.4464L34.9243 16.7916L25.5001 11.1367Z" fill="white"/>
</mask>
<g mask="url(#mask1_122_3254)">
<g filter="url(#filter1_f_122_3254)">
<circle cx="30.6538" cy="16.6538" r="15.6538" fill="white"/>
</g>
</g>
<defs>
<filter id="filter0_f_122_3254" x="-33.4" y="-44.4" width="128.8" height="128.8" filterUnits="userSpaceOnUse" color-interpolation-filters="sRGB">
<feFlood flood-opacity="0" result="BackgroundImageFix"/>
<feBlend mode="normal" in="SourceGraphic" in2="BackgroundImageFix" result="shape"/>
<feGaussianBlur stdDeviation="19.7" result="effect1_foregroundBlur_122_3254"/>
</filter>
<filter id="filter1_f_122_3254" x="-3" y="-17" width="67.3077" height="67.3076" filterUnits="userSpaceOnUse" color-interpolation-filters="sRGB">
<feFlood flood-opacity="0" result="BackgroundImageFix"/>
<feBlend mode="normal" in="SourceGraphic" in2="BackgroundImageFix" result="shape"/>
<feGaussianBlur stdDeviation="9" result="effect1_foregroundBlur_122_3254"/>
</filter>
</defs>
</svg>
