<svg width="1440" height="480" viewBox="0 0 1440 480" fill="none" xmlns="http://www.w3.org/2000/svg">
<mask id="mask0_122_2205" style="mask-type:alpha" maskUnits="userSpaceOnUse" x="51" y="145" width="1310" height="208">
<ellipse cx="706" cy="249" rx="655" ry="104" fill="white"/>
</mask>
<g mask="url(#mask0_122_2205)">
<rect x="0.5" y="120.5" width="59" height="59" stroke="white" stroke-opacity="0.3"/>
<rect x="0.5" y="180.5" width="59" height="59" stroke="white" stroke-opacity="0.3"/>
<rect x="60.5" y="120.5" width="59" height="59" stroke="white" stroke-opacity="0.3"/>
<rect x="60.5" y="180.5" width="59" height="59" stroke="white" stroke-opacity="0.3"/>
<rect x="0.5" y="240.5" width="59" height="59" stroke="white" stroke-opacity="0.3"/>
<rect x="0.5" y="300.5" width="59" height="59" stroke="white" stroke-opacity="0.3"/>
<rect x="60.5" y="240.5" width="59" height="59" stroke="white" stroke-opacity="0.3"/>
<rect x="60.5" y="300.5" width="59" height="59" stroke="white" stroke-opacity="0.3"/>
<rect x="120.5" y="120.5" width="59" height="59" stroke="white" stroke-opacity="0.3"/>
<rect x="120.5" y="180.5" width="59" height="59" stroke="white" stroke-opacity="0.3"/>
<rect x="180.5" y="120.5" width="59" height="59" stroke="white" stroke-opacity="0.3"/>
<rect x="180.5" y="180.5" width="59" height="59" stroke="white" stroke-opacity="0.3"/>
<rect x="240.5" y="120.5" width="59" height="59" stroke="white" stroke-opacity="0.3"/>
<rect x="240.5" y="180.5" width="59" height="59" stroke="white" stroke-opacity="0.3"/>
<rect x="300.5" y="120.5" width="59" height="59" stroke="white" stroke-opacity="0.3"/>
<rect x="300.5" y="180.5" width="59" height="59" stroke="white" stroke-opacity="0.3"/>
<rect x="360.5" y="120.5" width="59" height="59" stroke="white" stroke-opacity="0.3"/>
<rect x="360.5" y="180.5" width="59" height="59" stroke="white" stroke-opacity="0.3"/>
<rect x="420.5" y="120.5" width="59" height="59" stroke="white" stroke-opacity="0.3"/>
<rect x="420.5" y="180.5" width="59" height="59" stroke="white" stroke-opacity="0.3"/>
<rect x="480.5" y="120.5" width="59" height="59" stroke="white" stroke-opacity="0.3"/>
<rect x="480.5" y="180.5" width="59" height="59" stroke="white" stroke-opacity="0.3"/>
<rect x="540.5" y="120.5" width="59" height="59" stroke="white" stroke-opacity="0.3"/>
<rect x="540.5" y="180.5" width="59" height="59" stroke="white" stroke-opacity="0.3"/>
<rect x="600.5" y="120.5" width="59" height="59" stroke="white" stroke-opacity="0.3"/>
<rect x="600.5" y="180.5" width="59" height="59" stroke="white" stroke-opacity="0.3"/>
<rect x="660.5" y="120.5" width="59" height="59" stroke="white" stroke-opacity="0.3"/>
<rect x="660.5" y="180.5" width="59" height="59" stroke="white" stroke-opacity="0.3"/>
<rect x="720.5" y="120.5" width="59" height="59" stroke="white" stroke-opacity="0.3"/>
<rect x="720.5" y="180.5" width="59" height="59" stroke="white" stroke-opacity="0.3"/>
<rect x="780.5" y="120.5" width="59" height="59" stroke="white" stroke-opacity="0.3"/>
<rect x="780.5" y="180.5" width="59" height="59" stroke="white" stroke-opacity="0.3"/>
<rect x="840.5" y="120.5" width="59" height="59" stroke="white" stroke-opacity="0.3"/>
<rect x="840.5" y="180.5" width="59" height="59" stroke="white" stroke-opacity="0.3"/>
<rect x="900.5" y="120.5" width="59" height="59" stroke="white" stroke-opacity="0.3"/>
<rect x="900.5" y="180.5" width="59" height="59" stroke="white" stroke-opacity="0.3"/>
<rect x="960.5" y="120.5" width="59" height="59" stroke="white" stroke-opacity="0.3"/>
<rect x="960.5" y="180.5" width="59" height="59" stroke="white" stroke-opacity="0.3"/>
<rect x="1020.5" y="120.5" width="59" height="59" stroke="white" stroke-opacity="0.3"/>
<rect x="1020.5" y="180.5" width="59" height="59" stroke="white" stroke-opacity="0.3"/>
<rect x="1080.5" y="120.5" width="59" height="59" stroke="white" stroke-opacity="0.3"/>
<rect x="1080.5" y="180.5" width="59" height="59" stroke="white" stroke-opacity="0.3"/>
<rect x="1140.5" y="120.5" width="59" height="59" stroke="white" stroke-opacity="0.3"/>
<rect x="1140.5" y="180.5" width="59" height="59" stroke="white" stroke-opacity="0.3"/>
<rect x="1200.5" y="120.5" width="59" height="59" stroke="white" stroke-opacity="0.3"/>
<rect x="1200.5" y="180.5" width="59" height="59" stroke="white" stroke-opacity="0.3"/>
<rect x="1260.5" y="120.5" width="59" height="59" stroke="white" stroke-opacity="0.3"/>
<rect x="1260.5" y="180.5" width="59" height="59" stroke="white" stroke-opacity="0.3"/>
<rect x="1320.5" y="120.5" width="59" height="59" stroke="white" stroke-opacity="0.3"/>
<rect x="1320.5" y="180.5" width="59" height="59" stroke="white" stroke-opacity="0.3"/>
<rect x="120.5" y="240.5" width="59" height="59" stroke="white" stroke-opacity="0.3"/>
<rect x="120.5" y="300.5" width="59" height="59" stroke="white" stroke-opacity="0.3"/>
<rect x="180.5" y="240.5" width="59" height="59" stroke="white" stroke-opacity="0.3"/>
<rect x="180.5" y="300.5" width="59" height="59" stroke="white" stroke-opacity="0.3"/>
<rect x="240.5" y="240.5" width="59" height="59" stroke="white" stroke-opacity="0.3"/>
<rect x="240.5" y="300.5" width="59" height="59" stroke="white" stroke-opacity="0.3"/>
<rect x="300.5" y="240.5" width="59" height="59" stroke="white" stroke-opacity="0.3"/>
<rect x="300.5" y="300.5" width="59" height="59" stroke="white" stroke-opacity="0.3"/>
<rect x="360.5" y="240.5" width="59" height="59" stroke="white" stroke-opacity="0.3"/>
<rect x="360.5" y="300.5" width="59" height="59" stroke="white" stroke-opacity="0.3"/>
<rect x="420.5" y="240.5" width="59" height="59" stroke="white" stroke-opacity="0.3"/>
<rect x="420.5" y="300.5" width="59" height="59" stroke="white" stroke-opacity="0.3"/>
<rect x="480.5" y="240.5" width="59" height="59" stroke="white" stroke-opacity="0.3"/>
<rect x="480.5" y="300.5" width="59" height="59" stroke="white" stroke-opacity="0.3"/>
<rect x="540.5" y="240.5" width="59" height="59" stroke="white" stroke-opacity="0.3"/>
<rect x="540.5" y="300.5" width="59" height="59" stroke="white" stroke-opacity="0.3"/>
<rect x="600.5" y="240.5" width="59" height="59" stroke="white" stroke-opacity="0.3"/>
<rect x="600.5" y="300.5" width="59" height="59" stroke="white" stroke-opacity="0.3"/>
<rect x="660.5" y="240.5" width="59" height="59" stroke="white" stroke-opacity="0.3"/>
<rect x="660.5" y="300.5" width="59" height="59" stroke="white" stroke-opacity="0.3"/>
<rect x="720.5" y="240.5" width="59" height="59" stroke="white" stroke-opacity="0.3"/>
<rect x="720.5" y="300.5" width="59" height="59" stroke="white" stroke-opacity="0.3"/>
<rect x="780.5" y="240.5" width="59" height="59" stroke="white" stroke-opacity="0.3"/>
<rect x="780.5" y="300.5" width="59" height="59" stroke="white" stroke-opacity="0.3"/>
<rect x="840.5" y="240.5" width="59" height="59" stroke="white" stroke-opacity="0.3"/>
<rect x="840.5" y="300.5" width="59" height="59" stroke="white" stroke-opacity="0.3"/>
<rect x="900.5" y="240.5" width="59" height="59" stroke="white" stroke-opacity="0.3"/>
<rect x="900.5" y="300.5" width="59" height="59" stroke="white" stroke-opacity="0.3"/>
<rect x="960.5" y="240.5" width="59" height="59" stroke="white" stroke-opacity="0.3"/>
<rect x="960.5" y="300.5" width="59" height="59" stroke="white" stroke-opacity="0.3"/>
<rect x="1020.5" y="240.5" width="59" height="59" stroke="white" stroke-opacity="0.3"/>
<rect x="1020.5" y="300.5" width="59" height="59" stroke="white" stroke-opacity="0.3"/>
<rect x="1080.5" y="240.5" width="59" height="59" stroke="white" stroke-opacity="0.3"/>
<rect x="1080.5" y="300.5" width="59" height="59" stroke="white" stroke-opacity="0.3"/>
<rect x="1140.5" y="240.5" width="59" height="59" stroke="white" stroke-opacity="0.3"/>
<rect x="1140.5" y="300.5" width="59" height="59" stroke="white" stroke-opacity="0.3"/>
<rect x="1200.5" y="240.5" width="59" height="59" stroke="white" stroke-opacity="0.3"/>
<rect x="1200.5" y="300.5" width="59" height="59" stroke="white" stroke-opacity="0.3"/>
<rect x="1260.5" y="240.5" width="59" height="59" stroke="white" stroke-opacity="0.3"/>
<rect x="1260.5" y="300.5" width="59" height="59" stroke="white" stroke-opacity="0.3"/>
<rect x="1320.5" y="240.5" width="59" height="59" stroke="white" stroke-opacity="0.3"/>
<rect x="1320.5" y="300.5" width="59" height="59" stroke="white" stroke-opacity="0.3"/>
</g>
</svg>
