<svg width="107" height="107" viewBox="0 0 107 107" fill="none" xmlns="http://www.w3.org/2000/svg">
<path d="M31.8593 23.4063C24.3213 23.4063 17.0921 26.4007 11.762 31.7308C6.43182 37.061 3.43738 44.2902 3.43738 51.8281V75.2344C3.43753 81.062 5.22907 86.7487 8.56927 91.5241C11.9095 96.2995 16.6369 99.9327 22.111 101.931C27.5851 103.93 33.5413 104.198 39.1727 102.698C44.8041 101.199 49.8384 98.0045 53.5936 93.5481C57.3488 98.0045 62.3831 101.199 68.0145 102.698C73.6459 104.198 79.6021 103.93 85.0763 101.931C90.5504 99.9327 95.2778 96.2995 98.618 91.5241C101.958 86.7487 103.75 81.062 103.75 75.2344V51.8281C103.75 46.0005 101.958 40.3138 98.618 35.5384C95.2778 30.763 90.5504 27.1298 85.0763 25.1311C79.6021 23.1323 73.6459 22.8645 68.0145 24.3641C62.3831 25.8636 57.3488 29.058 53.5936 33.5144C50.9288 30.3447 47.602 27.7971 43.8471 26.0508C40.0922 24.3045 36.0004 23.4018 31.8593 23.4063Z" fill="#9B9B9B"/>
<path d="M31.8593 26.75C25.2081 26.75 18.8294 29.3922 14.1263 34.0952C9.42328 38.7983 6.78113 45.177 6.78113 51.8282V75.2344C6.7794 80.7584 8.6016 86.1284 11.9648 90.5106C15.3279 94.8927 20.0439 98.0419 25.3803 99.469C30.7168 100.896 36.3751 100.521 41.4767 98.4029C46.5784 96.2845 50.8378 92.5408 53.5936 87.7534C56.3495 92.5408 60.6089 96.2845 65.7105 98.4029C70.8121 100.521 76.4705 100.896 81.8069 99.469C87.1434 98.0419 91.8593 94.8927 95.2225 90.5106C98.5857 86.1284 100.408 80.7584 100.406 75.2344V51.8282C100.408 46.3042 98.5857 40.9342 95.2225 36.552C91.8593 32.1698 87.1434 29.0207 81.8069 27.5936C76.4705 26.1664 70.8121 26.5412 65.7105 28.6597C60.6089 30.7781 56.3495 34.5217 53.5936 39.3092C51.3937 35.4907 48.2265 32.3194 44.4109 30.1145C40.5953 27.9097 36.2661 26.7492 31.8593 26.75Z" fill="white"/>
<path d="M50.2499 51.8281C50.2499 47.2673 51.467 42.9939 53.5936 39.3091C50.7215 34.3365 46.2359 30.495 40.8807 28.4219H40.3223C43.9803 30.6154 46.8025 39.2891 46.8025 43.4688V84.0117C46.8025 88.6094 46.2775 94.3539 40.3256 98.8479C45.9195 96.8324 50.6197 92.9022 53.5936 87.7534C51.3972 83.9472 50.2438 79.6289 50.2499 75.2344V51.8281ZM100.406 51.8281C100.408 46.7613 98.8741 41.8129 96.0079 37.6347C93.1416 33.4566 89.077 30.2446 84.3494 28.4219H83.791C89.3283 32.0799 93.508 38.6638 93.508 43.5724V83.5938C93.508 88.1914 89.7496 94.3539 83.7944 98.8479C88.6589 97.1032 92.8657 93.8983 95.8392 89.6714C98.8127 85.4446 100.408 80.4023 100.406 75.2344V51.8281Z" fill="#D3D3D3"/>
<path d="M22.0353 43.4688C18.9314 43.4688 15.9547 44.7018 13.7599 46.8965C11.5652 49.0913 10.3322 52.068 10.3322 55.1719V71.8906C10.3322 73.4275 10.6349 74.9493 11.223 76.3692C11.8111 77.7891 12.6732 79.0793 13.7599 80.166C14.8467 81.2527 16.1368 82.1148 17.5567 82.7029C18.9766 83.291 20.4984 83.5938 22.0353 83.5938C23.5722 83.5938 25.094 83.291 26.5139 82.7029C27.9338 82.1148 29.2239 81.2527 30.3106 80.166C31.3974 79.0793 32.2594 77.7891 32.8476 76.3692C33.4357 74.9493 33.7384 73.4275 33.7384 71.8906V55.1719C33.7384 52.068 32.5054 49.0913 30.3106 46.8965C28.1159 44.7018 25.1391 43.4688 22.0353 43.4688ZM65.2967 43.4688C62.1929 43.4688 59.2161 44.7018 57.0214 46.8965C54.8266 49.0913 53.5936 52.068 53.5936 55.1719V71.8906C53.5936 73.4275 53.8963 74.9493 54.4844 76.3692C55.0726 77.7891 55.9346 79.0793 57.0214 80.166C58.1081 81.2527 59.3982 82.1148 60.8181 82.7029C62.238 83.291 63.7598 83.5938 65.2967 83.5938C66.8336 83.5938 68.3554 83.291 69.7753 82.7029C71.1952 82.1148 72.4853 81.2527 73.5721 80.166C74.6588 79.0793 75.5209 77.7891 76.109 76.3692C76.6971 74.9493 76.9998 73.4275 76.9998 71.8906V55.1719C76.9998 52.068 75.7668 49.0913 73.5721 46.8965C71.3773 44.7018 68.4006 43.4688 65.2967 43.4688Z" fill="#321B41"/>
<path d="M29.3113 56.379C30.5552 55.3424 30.4983 53.2292 29.1842 51.6509C27.8702 50.0727 25.8004 49.6346 24.5565 50.6679C23.3126 51.7011 23.3728 53.8177 24.6869 55.3959C25.9977 56.9708 28.0708 57.4122 29.3113 56.379ZM72.77 56.379C74.0106 55.3424 73.9537 53.2292 72.6396 51.6509C71.3255 50.0727 69.2557 49.6346 68.0152 50.6679C66.7713 51.7011 66.8315 53.8177 68.1423 55.3959C69.4564 56.9708 71.5262 57.4122 72.77 56.379Z" fill="#F4F4F4"/>
</svg>
