<svg width="50" height="50" viewBox="0 0 50 50" fill="none" xmlns="http://www.w3.org/2000/svg">
<mask id="mask0_122_3244" style="mask-type:alpha" maskUnits="userSpaceOnUse" x="0" y="0" width="50" height="50">
<circle cx="25" cy="25" r="24.5" stroke="white"/>
</mask>
<g mask="url(#mask0_122_3244)">
<g filter="url(#filter0_f_122_3244)">
<circle cx="31" cy="20" r="25" fill="#D9D9D9"/>
</g>
</g>
<mask id="mask1_122_3244" style="mask-type:alpha" maskUnits="userSpaceOnUse" x="8" y="8" width="34" height="34">
<g clip-path="url(#clip0_122_3244)">
<path fill-rule="evenodd" clip-rule="evenodd" d="M27.8333 16.5001H22.1666C21.7909 16.5001 21.4306 16.6493 21.1649 16.915C20.8992 17.1807 20.75 17.541 20.75 17.9167V32.0834C20.75 32.4591 20.8992 32.8195 21.1649 33.0852C21.4306 33.3508 21.7909 33.5001 22.1666 33.5001H27.8333C28.209 33.5001 28.5694 33.3508 28.835 33.0852C29.1007 32.8195 29.25 32.4591 29.25 32.0834V17.9167C29.25 17.541 29.1007 17.1807 28.835 16.915C28.5694 16.6493 28.209 16.5001 27.8333 16.5001ZM22.1666 13.6667C21.0395 13.6667 19.9585 14.1145 19.1614 14.9115C18.3644 15.7086 17.9166 16.7896 17.9166 17.9167V32.0834C17.9166 33.2106 18.3644 34.2916 19.1614 35.0886C19.9585 35.8857 21.0395 36.3334 22.1666 36.3334H27.8333C28.9605 36.3334 30.0415 35.8857 30.8385 35.0886C31.6355 34.2916 32.0833 33.2106 32.0833 32.0834V17.9167C32.0833 16.7896 31.6355 15.7086 30.8385 14.9115C30.0415 14.1145 28.9605 13.6667 27.8333 13.6667H22.1666Z" fill="white"/>
<path d="M16.5 18.5684L12.9484 17.9762C12.3397 17.8748 11.7163 17.9072 11.1214 18.0711C10.5265 18.2349 9.97436 18.5264 9.50346 18.9252C9.03255 19.3239 8.65413 19.8205 8.3945 20.3803C8.13487 20.9401 8.00025 21.5497 8 22.1667V29.1325C7.99984 29.7498 8.13416 30.3597 8.39361 30.9199C8.65306 31.48 9.03142 31.9769 9.50237 32.376C9.97333 32.7751 10.5256 33.0668 11.1207 33.2308C11.7158 33.3948 12.3395 33.4273 12.9484 33.3258L16.5 32.7322V29.8607L12.4823 30.5293C12.2796 30.563 12.0719 30.5522 11.8738 30.4976C11.6757 30.4431 11.4918 30.346 11.3349 30.2133C11.178 30.0805 11.0519 29.9152 10.9653 29.7288C10.8786 29.5424 10.8336 29.3394 10.8333 29.1339V22.1682C10.8332 21.9624 10.8779 21.7591 10.9644 21.5723C11.0508 21.3856 11.1769 21.2199 11.3338 21.0869C11.4907 20.9538 11.6748 20.8565 11.8731 20.8018C12.0715 20.747 12.2794 20.7362 12.4823 20.7699L16.5 21.44V18.5684ZM33.5 18.5684L37.0516 17.9762C37.6603 17.8748 38.2837 17.9072 38.8786 18.0711C39.4735 18.2349 40.0256 18.5264 40.4965 18.9252C40.9674 19.3239 41.3459 19.8205 41.6055 20.3803C41.8651 20.9401 41.9997 21.5497 42 22.1667V29.1325C42.0002 29.7498 41.8658 30.3597 41.6064 30.9199C41.3469 31.48 40.9686 31.9769 40.4976 32.376C40.0267 32.7751 39.4744 33.0668 38.8793 33.2308C38.2842 33.3948 37.6605 33.4273 37.0516 33.3258L33.5 32.7322V29.8607L37.5177 30.5293C37.7204 30.563 37.9281 30.5522 38.1262 30.4976C38.3243 30.4431 38.5082 30.346 38.6651 30.2133C38.822 30.0805 38.9481 29.9152 39.0347 29.7288C39.1214 29.5424 39.1664 29.3394 39.1667 29.1339V22.1682C39.1668 21.9624 39.1221 21.7591 39.0356 21.5723C38.9492 21.3856 38.8231 21.2199 38.6662 21.0869C38.5093 20.9538 38.3252 20.8565 38.1269 20.8018C37.9285 20.747 37.7206 20.7362 37.5177 20.7699L33.5 21.44V18.5684Z" fill="white"/>
</g>
</mask>
<g mask="url(#mask1_122_3244)">
<g filter="url(#filter1_f_122_3244)">
<circle cx="29.1464" cy="20.0244" r="14.5122" fill="white"/>
</g>
</g>
<defs>
<filter id="filter0_f_122_3244" x="-33.4" y="-44.4" width="128.8" height="128.8" filterUnits="userSpaceOnUse" color-interpolation-filters="sRGB">
<feFlood flood-opacity="0" result="BackgroundImageFix"/>
<feBlend mode="normal" in="SourceGraphic" in2="BackgroundImageFix" result="shape"/>
<feGaussianBlur stdDeviation="19.7" result="effect1_foregroundBlur_122_3244"/>
</filter>
<filter id="filter1_f_122_3244" x="0.134155" y="-8.98779" width="58.0244" height="58.0244" filterUnits="userSpaceOnUse" color-interpolation-filters="sRGB">
<feFlood flood-opacity="0" result="BackgroundImageFix"/>
<feBlend mode="normal" in="SourceGraphic" in2="BackgroundImageFix" result="shape"/>
<feGaussianBlur stdDeviation="7.25" result="effect1_foregroundBlur_122_3244"/>
</filter>
<clipPath id="clip0_122_3244">
<rect width="34" height="34" fill="white" transform="translate(8 8)"/>
</clipPath>
</defs>
</svg>
