<svg width="80" height="80" viewBox="0 0 80 80" fill="none" xmlns="http://www.w3.org/2000/svg">
<path d="M40 70C58.4095 70 73.3333 55.0761 73.3333 36.6666C73.3333 18.2572 58.4095 3.33331 40 3.33331C21.5905 3.33331 6.66666 18.2572 6.66666 36.6666C6.66666 55.0761 21.5905 70 40 70Z" fill="#FFF59D"/>
<path d="M61.6667 36.6667C61.6667 23.8333 50.6667 13.6667 37.5 15.1667C27.5 16.3333 19.5 24.3333 18.5 34.3333C17.6667 42 20.8333 48.8333 26.1667 53.1667C28.5 55.1667 30 58 30 61.1667V61.6667H50V61.5C50 58.5 51.3333 55.5 53.6667 53.5C58.5 49.5 61.6667 43.5 61.6667 36.6667Z" fill="#FBC02D"/>
<path d="M51 33.6666L46 30.3333C45.5 30 44.6667 30 44.1667 30.3333L40 33L36 30.3333C35.5 30 34.6667 30 34.1667 30.3333L29.1667 33.6666C28.8333 34 28.5 34.3333 28.5 34.8333C28.5 35.3333 28.5 35.8333 28.8333 36.1666L35.1667 44V61.6666H38.5V43.3333C38.5 43 38.3333 42.6666 38.1667 42.3333L32.6667 35.5L35.1667 33.8333L39.1667 36.5C39.6667 36.8333 40.5 36.8333 41 36.5L45 33.8333L47.5 35.5L42 42.3333C41.8333 42.6666 41.6667 43 41.6667 43.3333V61.6666H45V44L51.3333 36.1666C51.6667 35.8333 51.8333 35.3333 51.6667 34.8333C51.5 34.3333 51.3333 33.8333 51 33.6666Z" fill="#FFF59D"/>
<path d="M40 78.3334C42.7614 78.3334 45 76.0948 45 73.3334C45 70.572 42.7614 68.3334 40 68.3334C37.2386 68.3334 35 70.572 35 73.3334C35 76.0948 37.2386 78.3334 40 78.3334Z" fill="#5C6BC0"/>
<path d="M43.3333 75H36.6667C33 75 30 72 30 68.3333V60H50V68.3333C50 72 47 75 43.3333 75Z" fill="#9FA8DA"/>
<path d="M50 68.3333L30.6667 71C31.1667 72.1666 32.1667 73.3333 33.3333 74L49 71.8333C49.6667 70.8333 50 69.6666 50 68.3333ZM30 64.5V67.8333L50 65V61.6666L30 64.5Z" fill="#5C6BC0"/>
</svg>
