<svg width="50" height="52" viewBox="0 0 50 52" fill="none" xmlns="http://www.w3.org/2000/svg">
<mask id="mask0_292_293" style="mask-type:alpha" maskUnits="userSpaceOnUse" x="0" y="2" width="50" height="50">
<circle cx="25" cy="27" r="24.5" stroke="white"/>
</mask>
<g mask="url(#mask0_292_293)">
<g filter="url(#filter0_f_292_293)">
<circle cx="31" cy="22" r="25" fill="#D9D9D9"/>
</g>
</g>
<mask id="mask1_292_293" style="mask-type:alpha" maskUnits="userSpaceOnUse" x="8" y="0" width="39" height="39">
<g clip-path="url(#clip0_292_293)">
<path d="M39.1666 19.4998C39.1666 17.9415 37.8916 16.6665 36.3333 16.6665H13.6666C12.1083 16.6665 10.8333 17.9415 10.8333 19.4998V36.4998C10.8333 38.0582 12.1083 39.3332 13.6666 39.3332H36.3333C37.8916 39.3332 39.1666 38.0582 39.1666 36.4998V19.4998ZM36.3333 19.4998L24.9999 26.5832L13.6666 19.4998H36.3333ZM36.3333 36.4998H13.6666V22.3332L24.9999 29.4165L36.3333 22.3332V36.4998Z" fill="white"/>
</g>
</mask>
<g mask="url(#mask1_292_293)">
<g filter="url(#filter1_f_292_293)">
<circle cx="27.5122" cy="20.5122" r="14.5122" fill="white"/>
</g>
</g>
<defs>
<filter id="filter0_f_292_293" x="-33.4" y="-42.4" width="128.8" height="128.8" filterUnits="userSpaceOnUse" color-interpolation-filters="sRGB">
<feFlood flood-opacity="0" result="BackgroundImageFix"/>
<feBlend mode="normal" in="SourceGraphic" in2="BackgroundImageFix" result="shape"/>
<feGaussianBlur stdDeviation="19.7" result="effect1_foregroundBlur_292_293"/>
</filter>
<filter id="filter1_f_292_293" x="-1.5" y="-8.5" width="58.0244" height="58.0244" filterUnits="userSpaceOnUse" color-interpolation-filters="sRGB">
<feFlood flood-opacity="0" result="BackgroundImageFix"/>
<feBlend mode="normal" in="SourceGraphic" in2="BackgroundImageFix" result="shape"/>
<feGaussianBlur stdDeviation="7.25" result="effect1_foregroundBlur_292_293"/>
</filter>
<clipPath id="clip0_292_293">
<rect width="39" height="39" fill="white" transform="translate(8)"/>
</clipPath>
</defs>
</svg>
