<svg width="51" height="50" viewBox="0 0 51 50" fill="none" xmlns="http://www.w3.org/2000/svg">
<mask id="mask0_226_214" style="mask-type:alpha" maskUnits="userSpaceOnUse" x="14" y="14" width="22" height="22">
<path d="M21.885 24.6975L24.74 21.835L22.1737 19.26L21.1675 20.265C21.0508 20.3816 20.9092 20.4454 20.7425 20.4562C20.5758 20.4671 20.4229 20.4033 20.2838 20.265C20.1454 20.1266 20.0762 19.9779 20.0762 19.8187C20.0762 19.6596 20.1454 19.5108 20.2838 19.3725L21.2812 18.375L18.8412 15.935L15.9787 18.7975L21.885 24.6975ZM31.6775 34.4975L34.54 31.635L32.1012 29.195L31.0962 30.1925C30.9746 30.3141 30.8312 30.3791 30.6662 30.3875C30.5012 30.3958 30.3496 30.3308 30.2113 30.1925C30.0729 30.0541 30.0042 29.9066 30.005 29.75C30.0058 29.5933 30.0746 29.4458 30.2113 29.3075L31.2087 28.3025L28.6588 25.76L25.8025 28.615L31.6775 34.4975ZM16.51 35C16.22 35 15.9792 34.9041 15.7875 34.7125C15.5958 34.5208 15.5 34.28 15.5 33.99V31.4687C15.5 31.3346 15.5233 31.2091 15.57 31.0925C15.6167 30.9758 15.6942 30.8633 15.8025 30.755L20.9925 25.565L15.0575 19.6062C14.8317 19.3804 14.7188 19.1112 14.7188 18.7987C14.7188 18.4862 14.8317 18.2166 15.0575 17.99L18.0338 15.015C18.2596 14.7891 18.5287 14.6771 18.8412 14.6787C19.1537 14.6804 19.4229 14.7946 19.6487 15.0212L25.64 20.98L31.2238 15.3887C31.3612 15.2512 31.5063 15.1521 31.6588 15.0912C31.8113 15.0304 31.9737 15 32.1462 15C32.3187 15 32.4813 15.0304 32.6338 15.0912C32.7863 15.1521 32.9317 15.2512 33.07 15.3887L35.11 17.51C35.2483 17.6475 35.3442 17.7925 35.3975 17.945C35.4508 18.0975 35.4771 18.26 35.4763 18.4325C35.4754 18.605 35.4487 18.7625 35.3962 18.905C35.3438 19.0475 35.2487 19.1875 35.1112 19.325L29.5737 24.8925L35.4862 30.8512C35.7113 31.0771 35.8238 31.3462 35.8238 31.6587C35.8238 31.9712 35.7113 32.2404 35.4862 32.4662L32.51 35.4412C32.2842 35.6679 32.015 35.7812 31.7025 35.7812C31.39 35.7812 31.1208 35.6683 30.895 35.4425L24.935 29.5075L19.745 34.6975C19.6367 34.8058 19.5242 34.8833 19.4075 34.93C19.2908 34.9766 19.1654 35 19.0312 35H16.51ZM16.75 33.75H18.9088L31.1838 21.4825L29.0162 19.3175L16.75 31.5912V33.75ZM30.115 20.3925L29.0175 19.3175L31.1825 21.4837L30.115 20.3925Z" fill="white"/>
</mask>
<g mask="url(#mask0_226_214)">
<g filter="url(#filter0_f_226_214)">
<ellipse cx="28.5" cy="21.5" rx="14" ry="14.5" fill="white"/>
</g>
</g>
<mask id="mask1_226_214" style="mask-type:alpha" maskUnits="userSpaceOnUse" x="0" y="0" width="51" height="50">
<circle cx="25.5" cy="25" r="24.5" stroke="white"/>
</mask>
<g mask="url(#mask1_226_214)">
<g filter="url(#filter1_f_226_214)">
<circle cx="31.5" cy="20" r="25" fill="#D9D9D9"/>
</g>
</g>
<defs>
<filter id="filter0_f_226_214" x="-1.8" y="-9.3" width="60.6" height="61.6" filterUnits="userSpaceOnUse" color-interpolation-filters="sRGB">
<feFlood flood-opacity="0" result="BackgroundImageFix"/>
<feBlend mode="normal" in="SourceGraphic" in2="BackgroundImageFix" result="shape"/>
<feGaussianBlur stdDeviation="8.15" result="effect1_foregroundBlur_226_214"/>
</filter>
<filter id="filter1_f_226_214" x="-32.9" y="-44.4" width="128.8" height="128.8" filterUnits="userSpaceOnUse" color-interpolation-filters="sRGB">
<feFlood flood-opacity="0" result="BackgroundImageFix"/>
<feBlend mode="normal" in="SourceGraphic" in2="BackgroundImageFix" result="shape"/>
<feGaussianBlur stdDeviation="19.7" result="effect1_foregroundBlur_226_214"/>
</filter>
</defs>
</svg>
